# xmcd
#
# Track frame offsets:
#	183
#	11970
#	23928
#	37423
#	50203
#	62780
#	75605
#	87448
#	101255
#	114533
#	128180
#	140850
#	155920
#	166955
#	184185
#
# Disc length: 2665 seconds
#
# Revision: 3
# Processed by: cddbd v1.5.2PL0 Copyright (c) Steve Scherf et al.
# Submitted via: audiograbber 1.83.01
#
DISCID=de0a670f
DTITLE=Various Artist - The Heart Of Soul
DYEAR=1900
DGENRE=
TTITLE0=Drifters - Save The Last Dance For Me
TTITLE1=Shirelles - Will You Still Love Me Tomorrow
TTITLE2=Ben E. King - Spanish Harlem
TTITLE3=Dixie Cups - Chapel Of Love
TTITLE4=Mary Wells - My Guy
TTITLE5=Fontella Bass - Rescue Me
TTITLE6=Percy Sledge - (Sittin´ On) The Dock Of The Bay
TTITLE7=Jimmy Ruffin - What Becomes Of The Broken Hearted
TTITLE8=Percy Sledge - When A Man Loves A Woman
TTITLE9=Eddie Floyd - Knock On Wood
TTITLE10=Carla Thomas - B.a.b.y
TTITLE11=Martha Reeves - I Heard It Through The Grapevine
TTITLE12=Tams - Hey Girl Don't Bother Me
TTITLE13=Brook Benton - Rainy Night In Georgia
TTITLE14=Tymes - Ms Grace
EXTD=
EXTT0=
EXTT1=
EXTT2=
EXTT3=
EXTT4=
EXTT5=
EXTT6=
EXTT7=
EXTT8=
EXTT9=
EXTT10=
EXTT11=
EXTT12=
EXTT13=
EXTT14=
PLAYORDER=
